<svg width="24" height="24" viewBox="0 0 24 24" fill="none" xmlns="http://www.w3.org/2000/svg">
<path fill-rule="evenodd" clip-rule="evenodd" d="M18.335 3.05397L13.5229 6.26199H5.875C3.59679 6.26199 1.75 8.10878 1.75 10.387C1.75 12.6652 3.59679 14.512 5.875 14.512H6.36468L7.07621 18.7803C7.31453 20.2132 8.55362 21.262 10.005 21.262C11.8396 21.262 13.2348 19.6146 12.9338 17.8047L12.3853 14.512H13.5229L18.3354 17.7203C19.5809 18.5495 21.25 17.6589 21.25 16.16V4.61501C21.25 3.11729 19.5815 2.22407 18.335 3.05397ZM14.5 7.4134V13.3606L19.1666 16.4717C19.4171 16.6382 19.75 16.459 19.75 16.16V4.61501C19.75 4.31476 19.4161 4.13629 19.1666 4.3023L14.5 7.4134ZM13 13.012V7.76199H5.875C4.42521 7.76199 3.25 8.93721 3.25 10.387C3.25 11.8368 4.42521 13.012 5.875 13.012H6.98738C6.99642 13.0118 7.00544 13.0118 7.01442 13.012H11.4874C11.4964 13.0118 11.5054 13.0118 11.5144 13.012H13ZM7.88538 14.512L8.55579 18.5337C8.67362 19.2426 9.28651 19.762 10.005 19.762C10.9124 19.762 11.6031 18.9473 11.4542 18.0512L10.8646 14.512H7.88538Z" fill="#373F45"/>
</svg>
