<svg width="24" height="24" viewBox="0 0 24 24" fill="none" xmlns="http://www.w3.org/2000/svg">
<path fill-rule="evenodd" clip-rule="evenodd" d="M13.3747 1.5363C12.5238 1.04556 11.4762 1.04556 10.6253 1.5363L3.62451 5.57676C2.77392 6.0687 2.25 6.97603 2.25 7.95899V16.042C2.25 17.0247 2.774 17.9326 3.6253 18.4237L10.6253 22.4647C11.4762 22.9554 12.5241 22.9553 13.375 22.4645L20.3755 18.4232C21.2261 17.9313 21.75 17.024 21.75 16.041V7.95899C21.75 6.9763 21.226 6.0684 20.3747 5.5773L13.3747 1.5363ZM4.49939 6.80372L11.3747 2.83569C11.7617 2.6126 12.2383 2.61262 12.6253 2.83569L19.4998 6.80422L12 11.134L4.49939 6.80372ZM3.75 8.10311V16.042C3.75 16.4892 3.98816 16.9014 4.3747 17.1243L11.25 21.0933V12.433L3.75 8.10311ZM12.75 12.433L20.25 8.10312V16.041C20.25 16.488 20.0119 16.9007 19.6245 17.1248L12.75 21.0933V12.433Z" fill="#373F45"/>
</svg>
