<svg xmlns="http://www.w3.org/2000/svg" viewBox="0 0 256 224"><path fill="#48639C" d="M24 0h208c13.25 0 24 10.75 24 24v176c0 13.25-10.75 24-24 24H24c-13.25 0-24-10.75-24-24V24C0 10.75 10.75 0 24 0zm0 16c-4.4183 0-8 3.5817-8 8v176c0 4.418 3.5817 8 8 8h208c4.418 0 8-3.582 8-8V24c0-4.4183-3.582-8-8-8H24zm43 129v21h121v-21H67zm-6-12c-3.3137 0-6 2.686-6 6v33c0 3.314 2.6863 6 6 6h133c3.314 0 6-2.686 6-6v-33c0-3.314-2.686-6-6-6H61zm133-24c3.314 0 6-2.686 6-6 0-3.3137-2.686-6-6-6H61c-3.3137 0-6 2.6863-6 6 0 3.314 2.6863 6 6 6h133zm6-34c0 3.3137-2.686 6-6 6H61c-3.3137 0-6-2.6863-6-6s2.6863-6 6-6h133c3.314 0 6 2.6863 6 6zm-6-22c3.314 0 6-2.6863 6-6s-2.686-6-6-6H61c-3.3137 0-6 2.6863-6 6s2.6863 6 6 6h133z"></path></svg>