<svg width="24" height="24" viewBox="0 0 24 24" xmlns="http://www.w3.org/2000/svg"><path fill="#FB6970" fill-rule="evenodd" d="M12 1.25A4.75 4.75 0 0 0 7.25 6v.25H5A1.75 1.75 0 0 0 3.25 8v12c0 .966.784 1.75 1.75 1.75h14A1.75 1.75 0 0 0 20.75 20V8A1.75 1.75 0 0 0 19 6.25h-2.25V6A4.75 4.75 0 0 0 12 1.25zm3.25 6.5V10a.75.75 0 0 0 1.5 0V7.75H19a.25.25 0 0 1 .25.25v12a.25.25 0 0 1-.25.25H5a.25.25 0 0 1-.25-.25V8A.25.25 0 0 1 5 7.75h2.25V10a.75.75 0 0 0 1.5 0V7.75h6.5zm0-1.5V6a3.25 3.25 0 0 0-6.5 0v.25h6.5z" clip-rule="evenodd"></path></svg>