<svg width="24" height="24" viewBox="0 0 24 24" fill="none" xmlns="http://www.w3.org/2000/svg">
<path d="M4.80005 6.25C5.21426 6.25 5.55005 5.91421 5.55005 5.5C5.55005 5.08579 5.21426 4.75 4.80005 4.75C4.38584 4.75 4.05005 5.08579 4.05005 5.5C4.05005 5.91421 4.38584 6.25 4.80005 6.25Z" fill="#373F45"/>
<path d="M8.07007 5.5C8.07007 5.91421 7.73428 6.25 7.32007 6.25C6.90585 6.25 6.57007 5.91421 6.57007 5.5C6.57007 5.08579 6.90585 4.75 7.32007 4.75C7.73428 4.75 8.07007 5.08579 8.07007 5.5Z" fill="#373F45"/>
<path d="M9.84009 6.25C10.2543 6.25 10.5901 5.91421 10.5901 5.5C10.5901 5.08579 10.2543 4.75 9.84009 4.75C9.42587 4.75 9.09009 5.08579 9.09009 5.5C9.09009 5.91421 9.42587 6.25 9.84009 6.25Z" fill="#373F45"/>
<path fill-rule="evenodd" clip-rule="evenodd" d="M4 2.25C2.48079 2.25 1.25 3.48079 1.25 5V19C1.25 20.5192 2.48079 21.75 4 21.75H9C9.41421 21.75 9.75 21.4142 9.75 21C9.75 20.5858 9.41421 20.25 9 20.25H4C3.30921 20.25 2.75 19.6908 2.75 19V8.75H21.25V11C21.25 11.4142 21.5858 11.75 22 11.75C22.4142 11.75 22.75 11.4142 22.75 11V5C22.75 3.48079 21.5192 2.25 20 2.25H4ZM21.25 7.25H2.75V5C2.75 4.30921 3.30921 3.75 4 3.75H20C20.6908 3.75 21.25 4.30921 21.25 5V7.25Z" fill="#373F45"/>
<path fill-rule="evenodd" clip-rule="evenodd" d="M20.6513 12.6167C19.968 11.9333 18.8599 11.9322 18.1764 12.6169L12.6167 18.1767C12.288 18.5054 12.104 18.9501 12.104 19.414V22C12.104 22.4142 12.4398 22.75 12.854 22.75H15.44C15.9039 22.75 16.3486 22.566 16.6773 22.2373L22.2373 16.6773C22.9208 15.9939 22.9216 14.8854 22.2367 14.202L20.6513 12.6167ZM19.238 13.6767C19.3346 13.5798 19.4922 13.5788 19.5907 13.6773L21.1774 15.264C21.2742 15.3606 21.2752 15.5182 21.1767 15.6167L15.6167 21.1767C15.5694 21.224 15.5061 21.25 15.44 21.25H13.604V19.414C13.604 19.3479 13.63 19.2846 13.6773 19.2373L19.238 13.6767Z" fill="#373F45"/>
</svg>
