<svg width="25" height="24" viewBox="0 0 25 24" fill="#373F45" xmlns="http://www.w3.org/2000/svg">
<path d="M3.61612 6.11612C3.85054 5.8817 4.16848 5.75 4.5 5.75H19.5C19.8315 5.75 20.1495 5.8817 20.3839 6.11612C20.6183 6.35054 20.75 6.66848 20.75 7V10C20.75 10.4142 21.0858 10.75 21.5 10.75C21.9142 10.75 22.25 10.4142 22.25 10V7C22.25 6.27065 21.9603 5.57118 21.4445 5.05546C20.9288 4.53973 20.2293 4.25 19.5 4.25H4.5C3.77065 4.25 3.07118 4.53973 2.55546 5.05546C2.03973 5.57118 1.75 6.27065 1.75 7V12C1.75 12.7293 2.03973 13.4288 2.55546 13.9445C3.07118 14.4603 3.77065 14.75 4.5 14.75H9.5C9.91421 14.75 10.25 14.4142 10.25 14C10.25 13.5858 9.91421 13.25 9.5 13.25H4.5C4.16848 13.25 3.85054 13.1183 3.61612 12.8839C3.3817 12.6495 3.25 12.3315 3.25 12V7C3.25 6.66848 3.3817 6.35054 3.61612 6.11612Z" />
<path fill-rule="evenodd" clip-rule="evenodd" d="M15.409 8.90901C15.8309 8.48705 16.4032 8.25 17 8.25C17.5967 8.25 18.169 8.48705 18.591 8.90901C19.0129 9.33097 19.25 9.90326 19.25 10.5V12.1131L20.9425 12.3891C21.6447 12.5036 22.2753 12.8859 22.7016 13.4556C23.1279 14.0253 23.3168 14.7381 23.2286 15.4441L22.8666 18.341C22.7835 19.0061 22.4603 19.618 21.9578 20.0616C21.4554 20.5052 20.8081 20.75 20.1379 20.75H16.3418C15.889 20.75 15.4432 20.6382 15.0441 20.4246C14.6449 20.2109 14.3046 19.902 14.0535 19.5253L12.1135 16.6149C11.8359 16.1986 11.7112 15.699 11.7605 15.2011C11.8099 14.7032 12.0301 14.2377 12.3839 13.884C12.5849 13.683 12.8235 13.5235 13.0861 13.4148C13.3487 13.306 13.6302 13.25 13.9144 13.25C14.1986 13.25 14.4801 13.306 14.7427 13.4148L14.75 13.4178V10.5C14.75 9.90326 14.987 9.33097 15.409 8.90901ZM14.1687 14.8006C14.2493 14.834 14.3225 14.8829 14.3842 14.9446L14.9696 15.5301C15.1841 15.7446 15.5067 15.8088 15.787 15.6927C16.0672 15.5766 16.25 15.3031 16.25 14.9998V10.5C16.25 10.3011 16.329 10.1103 16.4696 9.96967C16.6103 9.82902 16.8011 9.75 17 9.75C17.1989 9.75 17.3897 9.82902 17.5303 9.96967C17.671 10.1103 17.75 10.3011 17.75 10.5V12.7507C17.75 13.1183 18.0164 13.4317 18.3793 13.4909L20.701 13.8695C21.0203 13.9216 21.3069 14.0953 21.5006 14.3543C21.6944 14.6132 21.7803 14.9372 21.7402 15.2582L21.3782 18.155C21.3404 18.4573 21.1935 18.7354 20.9651 18.9371C20.7367 19.1387 20.4425 19.25 20.1379 19.25H16.3418C16.1359 19.25 15.9333 19.1992 15.7519 19.1021C15.5704 19.005 15.4157 18.8645 15.3016 18.6933L13.3616 15.7829C13.2764 15.6551 13.2381 15.5018 13.2532 15.3489C13.2684 15.1961 13.336 15.0532 13.4446 14.9446C13.5063 14.8829 13.5795 14.834 13.6601 14.8006C13.7408 14.7672 13.8271 14.75 13.9144 14.75C14.0017 14.75 14.088 14.7672 14.1687 14.8006Z" />
</svg>
