<svg width="591" height="467" fill="none" xmlns="http://www.w3.org/2000/svg"><path d="M281.783 238.421c56.784 0 100.674-42.698 100.674-95.368 0-49.344-41.233-79.474-68.544-79.474-38.03 0-68.512 26.562-72.855 65.995-.804 7.301-6.617 13.425-13.994 13.373-12.264-.088-30.093-.192-41.38-.153-4.859.017-8.876-3.908-8.636-8.74 1.704-34.2 13.192-66.176 35.1-90.74C236.492 16.022 271.943 0 313.913 0 384.429 0 451 63.772 451 143.053 451 230.837 377.923 302 283.284 302c-67.493 0-135.469-43.9-159.201-105.275a1.312 1.312 0 01-.06-.712c.316-1.816.944-3.475 1.562-5.109.898-2.374 1.777-4.696 1.649-7.372l-.41-8.549c-.203-4.218 2.191-8.14 6.064-9.934l3.43-1.59c3.913-1.812 6.693-5.382 7.463-9.578 1.15-6.27 6.68-10.828 13.135-10.828 10.08 0 18.845 6.671 22.138 16.157 15.848 45.655 41.041 79.211 102.729 79.211z" fill="#FB6970"/><path d="M533.186 391.685c-6.759 0-8.837-4.019-8.837-8.556 0-4.796 1.688-8.556 8.837-8.556 7.146 0 8.834 3.76 8.834 8.556 0 4.537-1.818 8.556-8.834 8.556zm-123.35 55.65v-33.317l-9.504-.046v-3.879c0-4.224 3.443-7.642 7.678-7.622l1.826.01V388.35l15.204-4.278v18.409h13.775v3.916c0 4.209-3.42 7.621-7.64 7.621h-6.135v31.373c0 4.829 2.742 6.525 6.277 7.108 4.164.687 7.627 3.693 7.627 7.903v5.73c-14.396 0-29.108-.633-29.108-18.797z" fill="#212F4F"/><path fill-rule="evenodd" clip-rule="evenodd" d="M109.898 401.044c-15.204-.389-33.917 9.204-33.917 33.187 0 23.594 18.713 32.928 33.917 32.54 15.594.388 34.177-8.946 34.177-32.54 0-23.983-18.583-33.576-34.177-33.187zm.112 53.95c-11.046 0-18.882-8.028-18.882-21.25 0-12.575 7.841-20.86 18.888-20.86 11.045 0 18.799 8.268 18.799 20.842 0 13.223-7.76 21.269-18.805 21.269z" fill="#212F4F"/><path d="M184.012 401.187c13.255 0 27.03 3.63 27.03 29.557v34.743h-8.474c-4.22 0-7.64-3.412-7.64-7.621v-28.418c0-12.316-4.548-16.983-12.475-16.983-4.419 0-10.135 3.37-12.865 6.093v39.308c0 4.209-3.42 7.621-7.64 7.621h-7.694v-62.745h8.573a6.535 6.535 0 016.371 5.056c3.899-4.278 8.967-6.611 14.814-6.611zm44.408 1.444a7.64 7.64 0 017.195 5.06l13.914 38.887 13.913-38.887a7.637 7.637 0 017.194-5.06h10.989l-22.66 57.895a7.642 7.642 0 01-7.118 4.85h-9.725L217.43 402.63h10.989z" fill="#212F4F"/><path fill-rule="evenodd" clip-rule="evenodd" d="M341.703 462.327c-4.808 1.945-14.562 4.535-24.697 4.535-17.804 0-31.439-10.24-31.439-33.316 0-20.742 13.217-31.832 29.332-31.832 19.887 0 28.373 13.317 27.487 31.446-.184 3.746-3.451 6.478-7.21 6.478h-34.283c.78 10.112 8.185 15.427 17.93 15.427 3.828 0 7.852-.194 12.673-1.092 5.114-.953 10.207 2.676 10.207 7.866v.488zm-13.08-33.319c1.045-9.922-5.668-15.367-13.724-15.367-8.057 0-13.49 6.033-14.006 15.367h27.73z" fill="#212F4F"/><path d="M362.636 402.762a6.292 6.292 0 016.117 4.796c5.198-3.89 11.697-6.352 16.243-6.352.392 0 2.86 0 6.759.519v6.727c0 3.616-3.133 6.366-6.759 6.366-4.156 0-10.266 1.556-15.074 4.278v46.41H354.46v-62.744h8.177zm178.345 54.936v-55.123h-7.693c-4.22 0-7.64 3.412-7.64 7.622v55.122h7.693c4.22 0 7.64-3.412 7.64-7.621zm20.911-10.231V414.15h-10.266v-3.916c0-4.21 3.42-7.622 7.64-7.622h2.626v-14.13l15.203-4.278v18.408h13.775v3.917c0 4.209-3.42 7.621-7.64 7.621h-6.135v31.373c0 4.829 2.745 6.525 6.28 7.108 4.161.687 7.625 3.693 7.625 7.903v5.73c-14.396 0-29.108-.633-29.108-18.797zM0 421.27c.097-29.336 22.273-45.729 43.554-45.729 11.82 0 22.659 2.54 31.572 8.892l-3.606 4.936c-2.412 3.301-7.09 4.545-10.898 3.043-5.376-2.12-10.44-2.569-14.213-2.569-17.412 0-30.44 11.23-30.535 31.427.094 20.197 13.13 31.242 30.543 31.242 3.773 0 8.836-.448 14.213-2.569 3.808-1.502 8.478-.071 10.89 3.23l3.606 4.936C66.213 464.46 55.374 467 43.554 467 22.274 467 .097 450.607 0 421.27zm457.797-45.271c4.22 0 7.64 3.412 7.64 7.622v34.942l31.273-39.201a7.644 7.644 0 016.15-3.1h13.892l-35.358 44.537 35.358 44.52H502.86a7.644 7.644 0 01-6.15-3.1l-31.273-39.19v34.669c0 4.209-3.42 7.621-7.64 7.621h-8.086V376h8.086z" fill="#212F4F"/></svg>