<svg viewBox="0 0 24 24" xmlns="http://www.w3.org/2000/svg" width="24" height="24" fill="#cfd4d9"><path fill-rule="evenodd" d="M12 2.25a7.25 7.25 0 0 0-7.246 7.01A2.75 2.75 0 0 0 2.25 12v3A2.75 2.75 0 0 0 5 17.75h1A1.75 1.75 0 0 0 7.75 16v-5c0-.88-.65-1.608-1.495-1.732a5.75 5.75 0 0 1 11.49 0A1.75 1.75 0 0 0 16.25 11v5c0 .698.409 1.3 1 1.581V18c0 .69-.56 1.25-1.25 1.25h-1.52A2.001 2.001 0 0 0 12.624 18h-1.25a2 2 0 0 0 0 4h1.25a2 2 0 0 0 1.854-1.25H16A2.75 2.75 0 0 0 18.75 18v-.25H19A2.75 2.75 0 0 0 21.75 15v-3a2.75 2.75 0 0 0-2.504-2.74A7.25 7.25 0 0 0 12 2.25zm-7 8.5c-.69 0-1.25.56-1.25 1.25v3c0 .69.56 1.25 1.25 1.25h1a.25.25 0 0 0 .25-.25v-5a.25.25 0 0 0-.25-.25H5zM13.125 20a.5.5 0 0 0-.5-.5h-1.25a.5.5 0 0 0 0 1h1.25a.5.5 0 0 0 .5-.5zM18 16.25h1c.69 0 1.25-.56 1.25-1.25v-3c0-.69-.56-1.25-1.25-1.25h-1a.25.25 0 0 0-.25.25v5c0 .138.112.25.25.25z" clip-rule="evenodd"></path></svg>