<svg width="400" height="181" viewBox="0 0 400 181" fill="none" xmlns="http://www.w3.org/2000/svg">
<g clip-path="url(#clip0_563_12787)">
<path d="M109.562 75.4899C158.772 85.0249 174.05 130.587 174.465 176.42C174.465 177.449 173.634 178.298 172.605 178.298H110.646C109.616 178.298 108.786 177.467 108.786 176.456C108.605 140.898 102.844 109.531 67.6117 108.176C66.5643 108.14 65.6795 108.971 65.6795 110.036V176.456C65.6795 177.485 64.8488 178.316 63.8194 178.316H1.86005C0.8307 178.316 0 177.485 0 176.456V7.17384C0 6.1445 0.8307 5.3138 1.86005 5.3138H63.8375C64.8668 5.3138 65.6975 6.1445 65.6975 7.17384V70.5779C65.6975 71.517 66.456 72.2754 67.395 72.2754C68.1354 72.2754 68.8036 71.7878 69.0203 71.0836C84.9661 18.7856 114.781 5.63885 163.196 5.33186C164.226 5.33186 165.056 6.16256 165.056 7.1919V70.4334C165.056 71.4628 164.226 72.2935 163.196 72.2935H109.869C108.966 72.2935 108.244 73.0158 108.244 73.9188C108.244 74.6772 108.804 75.3454 109.562 75.4899ZM279.223 115.129V74.1355C279.223 73.1061 280.054 72.2754 281.084 72.2754H326.682C327.585 72.2754 328.307 71.5531 328.307 70.6501C328.307 69.8736 327.747 69.2055 326.989 69.061C291.305 61.982 274.835 41.4492 274.275 7.17384C274.257 6.16255 275.07 5.3138 276.099 5.3138H343.061C344.09 5.3138 344.921 6.1445 344.921 7.17384V36.0497C344.921 37.079 345.752 37.9097 346.781 37.9097H385.174C386.203 37.9097 387.034 38.7404 387.034 39.7698V70.4515C387.034 71.4808 386.203 72.3115 385.174 72.3115H346.781C345.752 72.3115 344.921 73.1422 344.921 74.1716V107.237C344.921 118.921 352.09 122.768 361.607 122.768C376.524 122.768 391.26 116.05 397.165 112.998C398.393 112.366 399.874 113.251 399.874 114.641V166.108C399.874 167.481 399.115 168.745 397.905 169.395C392.072 172.465 374.05 180.971 353.445 180.971C310.989 180.935 279.223 163.652 279.223 115.129ZM192.054 176.438V74.1355C192.054 73.1061 192.885 72.2754 193.914 72.2754H255.892C256.921 72.2754 257.752 73.1061 257.752 74.1355V176.438C257.752 177.467 256.921 178.298 255.892 178.298H193.914C192.885 178.28 192.054 177.449 192.054 176.438ZM188.533 31.8781C188.533 49.2867 200.831 63.4086 224.451 63.4086C248.072 63.4086 260.37 49.2867 260.37 31.8781C260.37 14.4696 248.09 0.347656 224.451 0.347656C200.831 0.347656 188.533 14.4696 188.533 31.8781Z" fill="#F2EFE9"/>
<path d="M109.562 75.4899C158.772 85.0249 174.05 130.587 174.465 176.42C174.465 177.449 173.634 178.298 172.605 178.298H110.646C109.616 178.298 108.786 177.467 108.786 176.456C108.605 140.898 102.844 109.531 67.6117 108.176C66.5643 108.14 65.6795 108.971 65.6795 110.036V176.456C65.6795 177.485 64.8488 178.316 63.8194 178.316H1.86005C0.8307 178.316 0 177.485 0 176.456V7.17384C0 6.1445 0.8307 5.3138 1.86005 5.3138H63.8375C64.8668 5.3138 65.6975 6.1445 65.6975 7.17384V70.5779C65.6975 71.517 66.456 72.2754 67.395 72.2754C68.1354 72.2754 68.8036 71.7878 69.0203 71.0836C84.9661 18.7856 114.781 5.63885 163.196 5.33186C164.226 5.33186 165.056 6.16256 165.056 7.1919V70.4334C165.056 71.4628 164.226 72.2935 163.196 72.2935H109.869C108.966 72.2935 108.244 73.0158 108.244 73.9188C108.244 74.6772 108.804 75.3454 109.562 75.4899ZM279.223 115.129V74.1355C279.223 73.1061 280.054 72.2754 281.084 72.2754H326.682C327.585 72.2754 328.307 71.5531 328.307 70.6501C328.307 69.8736 327.747 69.2055 326.989 69.061C291.305 61.982 274.835 41.4492 274.275 7.17384C274.257 6.16255 275.07 5.3138 276.099 5.3138H343.061C344.09 5.3138 344.921 6.1445 344.921 7.17384V36.0497C344.921 37.079 345.752 37.9097 346.781 37.9097H385.174C386.203 37.9097 387.034 38.7404 387.034 39.7698V70.4515C387.034 71.4808 386.203 72.3115 385.174 72.3115H346.781C345.752 72.3115 344.921 73.1422 344.921 74.1716V107.237C344.921 118.921 352.09 122.768 361.607 122.768C376.524 122.768 391.26 116.05 397.165 112.998C398.393 112.366 399.874 113.251 399.874 114.641V166.108C399.874 167.481 399.115 168.745 397.905 169.395C392.072 172.465 374.05 180.971 353.445 180.971C310.989 180.935 279.223 163.652 279.223 115.129ZM192.054 176.438V74.1355C192.054 73.1061 192.885 72.2754 193.914 72.2754H255.892C256.921 72.2754 257.752 73.1061 257.752 74.1355V176.438C257.752 177.467 256.921 178.298 255.892 178.298H193.914C192.885 178.28 192.054 177.449 192.054 176.438ZM188.533 31.8781C188.533 49.2867 200.831 63.4086 224.451 63.4086C248.072 63.4086 260.37 49.2867 260.37 31.8781C260.37 14.4696 248.09 0.347656 224.451 0.347656C200.831 0.347656 188.533 14.4696 188.533 31.8781Z" fill="#F2EFE9"/>
</g>
<defs>
<clipPath id="clip0_563_12787">
<rect width="400" height="180.587" fill="white" transform="translate(0 0.347656)"/>
</clipPath>
</defs>
</svg>
