<svg width="400" height="182" viewBox="0 0 400 182" fill="none" xmlns="http://www.w3.org/2000/svg">
<g clip-path="url(#clip0_563_12784)">
<path d="M109.562 75.903C158.772 85.438 174.05 131 174.465 176.833C174.465 177.862 173.634 178.711 172.605 178.711H110.646C109.616 178.711 108.786 177.88 108.786 176.869C108.605 141.312 102.844 109.944 67.6117 108.589C66.5643 108.553 65.6795 109.384 65.6795 110.449V176.869C65.6795 177.898 64.8488 178.729 63.8194 178.729H1.86005C0.8307 178.729 0 177.898 0 176.869V7.58693C0 6.55758 0.8307 5.72688 1.86005 5.72688H63.8375C64.8668 5.72688 65.6975 6.55758 65.6975 7.58693V70.991C65.6975 71.93 66.456 72.6885 67.395 72.6885C68.1354 72.6885 68.8036 72.2009 69.0203 71.4966C84.9661 19.1987 114.781 6.05194 163.196 5.74494C164.226 5.74494 165.056 6.57564 165.056 7.60499V70.8465C165.056 71.8759 164.226 72.7066 163.196 72.7066H109.869C108.966 72.7066 108.244 73.4289 108.244 74.3319C108.244 75.0903 108.804 75.7585 109.562 75.903ZM279.223 115.542V74.5486C279.223 73.5192 280.054 72.6885 281.084 72.6885H326.682C327.585 72.6885 328.307 71.9662 328.307 71.0632C328.307 70.2867 327.747 69.6185 326.989 69.4741C291.305 62.3951 274.835 41.8623 274.275 7.58693C274.257 6.57564 275.07 5.72688 276.099 5.72688H343.061C344.09 5.72688 344.921 6.55758 344.921 7.58693V36.4628C344.921 37.4921 345.752 38.3228 346.781 38.3228H385.174C386.203 38.3228 387.034 39.1535 387.034 40.1829V70.8646C387.034 71.8939 386.203 72.7246 385.174 72.7246H346.781C345.752 72.7246 344.921 73.5553 344.921 74.5847V107.65C344.921 119.334 352.09 123.181 361.607 123.181C376.524 123.181 391.26 116.463 397.165 113.411C398.393 112.779 399.874 113.664 399.874 115.054V166.521C399.874 167.894 399.115 169.158 397.905 169.808C392.072 172.878 374.05 181.384 353.445 181.384C310.989 181.348 279.223 164.065 279.223 115.542ZM192.054 176.851V74.5486C192.054 73.5192 192.885 72.6885 193.914 72.6885H255.892C256.921 72.6885 257.752 73.5192 257.752 74.5486V176.851C257.752 177.88 256.921 178.711 255.892 178.711H193.914C192.885 178.693 192.054 177.862 192.054 176.851ZM188.533 32.2912C188.533 49.6998 200.831 63.8217 224.451 63.8217C248.072 63.8217 260.37 49.6998 260.37 32.2912C260.37 14.8826 248.09 0.760742 224.451 0.760742C200.831 0.760742 188.533 14.8826 188.533 32.2912Z" fill="#1E1E1E"/>
</g>
<defs>
<clipPath id="clip0_563_12784">
<rect width="400" height="180.587" fill="white" transform="translate(0 0.760742)"/>
</clipPath>
</defs>
</svg>
