<svg width="800" height="800" viewBox="0 0 800 800" fill="none" xmlns="http://www.w3.org/2000/svg">
<rect width="800" height="800" rx="162.85" fill="#44B1FF"/>
<path d="M469.502 349.355C621.017 378.864 667.989 519.717 669.167 661.365C669.194 664.552 666.63 667.152 663.455 667.15L472.711 667.067C469.564 667.065 467.002 664.514 466.987 661.349C466.462 551.454 448.769 454.468 340.312 450.234C337.076 450.11 334.379 452.71 334.378 455.964L334.288 661.274C334.287 664.439 331.729 667.005 328.576 667.004L137.793 666.92C134.641 666.919 132.084 664.35 132.086 661.186L132.313 138.048C132.314 134.883 134.873 132.317 138.025 132.318L328.809 132.402C331.961 132.403 334.517 134.972 334.516 138.136L334.43 334.103C334.429 337.011 336.774 339.367 339.671 339.369C341.967 339.37 344.008 337.869 344.676 335.659C393.897 174.085 485.696 133.492 634.734 132.558C637.897 132.537 640.487 135.117 640.485 138.292L640.4 333.774C640.399 336.938 637.841 339.505 634.688 339.503L470.457 339.431C467.699 339.43 465.463 341.673 465.462 344.441C465.461 346.841 467.156 348.902 469.502 349.36L469.502 349.355Z" fill="#1E1E1E"/>
</svg>
