<svg width="24" height="24" viewBox="0 0 24 24" fill="none" xmlns="http://www.w3.org/2000/svg">
<path fill-rule="evenodd" clip-rule="evenodd" d="M11.0103 5.45049C9.36065 3.91866 6.57978 3.73501 4.95038 5.48975C3.35706 7.20563 3.5101 9.75166 5.05038 11.4104C6.68013 13.1655 9.36107 12.9811 11.0103 11.4497C12.7412 9.84243 12.7119 7.15131 11.0303 5.46975C11.0238 5.46321 11.0171 5.45679 11.0103 5.45049ZM6.04957 6.51042C7.0173 5.46824 8.82858 5.48142 9.97944 6.54026C11.0879 7.65886 11.0556 9.36064 9.98963 10.3505C8.83888 11.419 7.11981 11.4346 6.14957 10.3897C5.08984 9.24851 5.04288 7.59454 6.04957 6.51042Z" fill="#373F45"/>
<path d="M2.75 19.0001C2.75 17.2143 4.21421 15.7501 6 15.7501H10C11.7858 15.7501 13.25 17.2143 13.25 19.0001C13.25 19.4143 13.5858 19.7501 14 19.7501C14.4142 19.7501 14.75 19.4143 14.75 19.0001C14.75 16.3858 12.6142 14.2501 10 14.2501H6C3.38579 14.2501 1.25 16.3858 1.25 19.0001C1.25 19.4143 1.58579 19.7501 2 19.7501C2.41421 19.7501 2.75 19.4143 2.75 19.0001Z" fill="#373F45"/>
<path d="M15.25 14.0001C15.25 13.5858 15.5858 13.2501 16 13.2501H19C21.1142 13.2501 22.75 14.8858 22.75 17.0001C22.75 17.4143 22.4142 17.7501 22 17.7501C21.5858 17.7501 21.25 17.4143 21.25 17.0001C21.25 15.7143 20.2858 14.7501 19 14.7501H16C15.5858 14.7501 15.25 14.4143 15.25 14.0001Z" fill="#373F45"/>
<path fill-rule="evenodd" clip-rule="evenodd" d="M19.8017 6.14262C18.5375 5.00476 16.4929 4.96274 15.2837 6.15583C13.9189 7.40022 14.1401 9.47683 15.2426 10.7018C16.4854 12.0828 18.5724 11.864 19.8017 10.7576C21.1492 9.54487 21.1069 7.44626 19.8304 6.16976C19.8211 6.16046 19.8115 6.15141 19.8017 6.14262ZM16.3304 7.23042C16.9191 6.6417 18.0523 6.60036 18.7836 7.2445C19.4926 7.96814 19.4467 9.0591 18.7983 9.64262C18.0276 10.3362 16.9146 10.3174 16.3575 9.69837C15.6639 8.92769 15.6827 7.81469 16.3017 7.25756C16.3115 7.24877 16.3211 7.23972 16.3304 7.23042Z" fill="#373F45"/>
</svg>
