<svg width="24" height="24" viewBox="0 0 24 24" fill="none" xmlns="http://www.w3.org/2000/svg">
<path d="M16.0389 9.08047C16.6617 9.08047 17.1618 8.57669 17.1639 7.95806L17.1639 7.95549C17.1639 7.33414 16.6603 6.83051 16.0389 6.83051C15.4176 6.83051 14.9139 7.33414 14.9139 7.95549C14.9139 8.57683 15.4176 9.08047 16.0389 9.08047Z" fill="#373F45"/>
<path fill-rule="evenodd" clip-rule="evenodd" d="M14.0107 2.75C13.2546 2.75 12.5285 3.05121 11.9947 3.58634L3.58542 11.9957C2.47153 13.1096 2.47153 14.9154 3.58542 16.0293L7.97042 20.4143C9.08431 21.5282 10.8902 21.5282 12.0041 20.4143L20.4137 12.0047C20.948 11.469 21.2498 10.7449 21.2498 9.987V5.602C21.2498 4.02632 19.9725 2.75 18.3958 2.75H14.0107ZM13.0568 4.64566C13.309 4.39279 13.6529 4.25 14.0107 4.25H18.3958C19.145 4.25 19.7498 4.85568 19.7498 5.602V9.987C19.7498 10.345 19.6074 10.689 19.3517 10.9453L10.9434 19.3537C10.4153 19.8818 9.55919 19.8818 9.03108 19.3537L4.64608 14.9687C4.11797 14.4406 4.11797 13.5844 4.64608 13.0563L13.0568 4.64566Z" fill="#373F45"/>
</svg>
