<svg width="9" height="9" viewBox="0 0 9 9" fill="none" xmlns="http://www.w3.org/2000/svg">
<path opacity="0.5" d="M5.26855 4.0498L8.01074 1.33301C8.16309 1.18066 8.16309 0.901367 8.01074 0.749023L7.37598 0.114258C7.22363 -0.0380859 6.94434 -0.0380859 6.79199 0.114258L4.0752 2.85645L1.33301 0.114258C1.18066 -0.0380859 0.901367 -0.0380859 0.749023 0.114258L0.114258 0.749023C-0.0380859 0.901367 -0.0380859 1.18066 0.114258 1.33301L2.85645 4.0498L0.114258 6.79199C-0.0380859 6.94434 -0.0380859 7.22363 0.114258 7.37598L0.749023 8.01074C0.901367 8.16309 1.18066 8.16309 1.33301 8.01074L4.0752 5.26855L6.79199 8.01074C6.94434 8.16309 7.22363 8.16309 7.37598 8.01074L8.01074 7.37598C8.16309 7.22363 8.16309 6.94434 8.01074 6.79199L5.26855 4.0498Z" fill="#73797F"/>
</svg>