<svg width="15" height="11" viewBox="0 0 15 11" fill="none" xmlns="http://www.w3.org/2000/svg">
<path opacity="0.3" d="M14.2266 3.56055C13.5977 4.05273 12.8047 4.6543 10.0156 6.67773C9.46875 7.08789 8.45703 7.99023 7.5 7.99023C6.51562 7.99023 5.53125 7.08789 4.95703 6.67773C2.16797 4.6543 1.375 4.05273 0.746094 3.56055C0.636719 3.47852 0.5 3.56055 0.5 3.69727V9.27539C0.5 10.0137 1.07422 10.5879 1.8125 10.5879H13.1875C13.8984 10.5879 14.5 10.0137 14.5 9.27539V3.69727C14.5 3.56055 14.3359 3.47852 14.2266 3.56055ZM7.5 7.08789C8.12891 7.11523 9.03125 6.29492 9.49609 5.9668C13.1328 3.3418 13.4062 3.0957 14.2266 2.43945C14.3906 2.33008 14.5 2.13867 14.5 1.91992V1.40039C14.5 0.689453 13.8984 0.0878906 13.1875 0.0878906H1.8125C1.07422 0.0878906 0.5 0.689453 0.5 1.40039V1.91992C0.5 2.13867 0.582031 2.33008 0.746094 2.43945C1.56641 3.0957 1.83984 3.3418 5.47656 5.9668C5.94141 6.29492 6.84375 7.11523 7.5 7.08789Z" fill="#485056"/>
</svg>