<svg width="25" height="24" viewBox="0 0 25 24" fill="none" xmlns="http://www.w3.org/2000/svg">
<path d="M12.5 6.75C12.9142 6.75 13.25 7.08579 13.25 7.5V12.5C13.25 12.9142 12.9142 13.25 12.5 13.25C12.0858 13.25 11.75 12.9142 11.75 12.5V7.5C11.75 7.08579 12.0858 6.75 12.5 6.75Z" fill="#D3434A"/>
<path d="M11.65 16C11.6466 15.5308 12.0274 15.15 12.4966 15.15C12.9692 15.15 13.35 15.5308 13.35 16C13.35 16.4692 12.9692 16.85 12.5 16.85C12.0308 16.85 11.65 16.4692 11.65 16Z" fill="#D3434A"/>
<path fill-rule="evenodd" clip-rule="evenodd" d="M2.75 12C2.75 6.61479 7.11479 2.25 12.5 2.25C17.8852 2.25 22.25 6.61479 22.25 12C22.25 17.3852 17.8852 21.75 12.5 21.75C7.11479 21.75 2.75 17.3852 2.75 12ZM12.5 3.75C7.94321 3.75 4.25 7.44321 4.25 12C4.25 16.5568 7.94321 20.25 12.5 20.25C17.0568 20.25 20.75 16.5568 20.75 12C20.75 7.44321 17.0568 3.75 12.5 3.75Z" fill="#D3434A"/>
</svg>